# xmcd
#
# Track frame offsets: 
#        150
#        18794
#        38355
#        64889
#        82755
#        98280
#        117465
#        135921
#        159480
#        176400
#        193001
#        214155
#        232410
#        251564
#        265680
#
# Disc length: 3851 seconds
#
# Revision: 0
# Processed by: cddbd v1.5.2PL0 Copyright (c) Steve Scherf et al.
# Submitted via: ExactAudioCopyFreeDBPlugin 1.0
#
DISCID=b80f090f
DTITLE=WEEKEND JOURNEY London Bossa - WEEKEND JOURNEY London Bossa
DYEAR=2012
DGENRE=Soundtrack
TTITLE0=London Calling
TTITLE1=Your Song
TTITLE2=Someone Like You
TTITLE3=All You Need Is Love
TTITLE4=I Was Born To Love You
TTITLE5=Whatever
TTITLE6=Every Teardrop Is A Waterfall
TTITLE7=My Ever Changing Moods
TTITLE8=Rehab
TTITLE9=Do You Want To
TTITLE10=Angie
TTITLE11=Every Breath You Take
TTITLE12=Made Of Stone
TTITLE13=Across The Universe
TTITLE14=Change The World
EXTD=
EXTT0=
EXTT1=
EXTT2=
EXTT3=
EXTT4=
EXTT5=
EXTT6=
EXTT7=
EXTT8=
EXTT9=
EXTT10=
EXTT11=
EXTT12=
EXTT13=
EXTT14=
PLAYORDER=
